<?xml version="1.0" encoding="UTF-8" standalone="no"?>
<!-- Created with Inkscape (http://www.inkscape.org/) -->

<svg
   xmlns:dc="http://purl.org/dc/elements/1.1/"
   xmlns:cc="http://creativecommons.org/ns#"
   xmlns:rdf="http://www.w3.org/1999/02/22-rdf-syntax-ns#"
   xmlns:svg="http://www.w3.org/2000/svg"
   xmlns="http://www.w3.org/2000/svg"
   version="1.1"
   width="110"
   height="110"
   id="svg3052"
   xml:space="preserve"><metadata
     id="metadata3058"><rdf:RDF><cc:Work
         rdf:about=""><dc:format>image/svg+xml</dc:format><dc:type
           rdf:resource="http://purl.org/dc/dcmitype/StillImage" /><dc:title></dc:title></cc:Work></rdf:RDF></metadata><defs
     id="defs3056"><clipPath
       id="clipPath3072"><path
         d="M 0,600 800,600 800,0 0,0 0,600 z"
         id="path3074" /></clipPath><clipPath
       id="clipPath3094"><path
         d="M 0,600 800,600 800,0 0,0 0,600 z"
         id="path3096" /></clipPath></defs><g
     transform="matrix(1.25,0,0,-1.25,-74.30475,653.97376)"
     id="g3060"><g
       clip-path="url(#clipPath3094)"
       id="g3092"><g
         transform="translate(83.337383,465.479)"
         id="g3154"
         style="stroke:#9c9c9c;stroke-width:2.44000006;stroke-miterlimit:4;stroke-opacity:1;stroke-dasharray:none"><path
           d="M 0,0 16.284,30.347"
           id="path3156"
           style="fill:none;stroke:#9c9c9c;stroke-width:2.44000006;stroke-linecap:butt;stroke-linejoin:miter;stroke-miterlimit:4;stroke-opacity:1;stroke-dasharray:none" /></g><g
         transform="translate(124.78808,461.7768)"
         id="g3158"
         style="stroke:#9c9c9c;stroke-width:2.44000006;stroke-miterlimit:4;stroke-opacity:1;stroke-dasharray:none"><path
           d="M 0,0 -41.451,0"
           id="path3160"
           style="fill:none;stroke:#9c9c9c;stroke-width:2.44000006;stroke-linecap:butt;stroke-linejoin:miter;stroke-miterlimit:4;stroke-opacity:1;stroke-dasharray:none" /></g><g
         transform="translate(137.26118,462.7768)"
         id="g3162"><path
           d="m 0,0 c 0,-6.415 -5.2,-11.614 -11.613,-11.614 -6.417,0 -11.616,5.199 -11.616,11.614 0,6.414 5.199,11.612 11.616,11.612 C -5.2,11.612 0,6.414 0,0"
           id="path3164"
           style="fill:#eee9b1;fill-opacity:1;fill-rule:nonzero;stroke:none" /></g><g
         transform="translate(111.68158,498.4673)"
         id="g3166"><path
           d="m 0,0 c 0,-6.416 -5.198,-11.613 -11.614,-11.613 -6.415,0 -11.615,5.197 -11.615,11.613 0,6.415 5.2,11.613 11.615,11.613 C -5.198,11.613 0,6.415 0,0"
           id="path3168"
           style="fill:#d8cb60;fill-opacity:1;fill-rule:nonzero;stroke:none" /></g><g
         transform="translate(93.800283,462.2251)"
         id="g3170"><path
           d="m 0,0 c 0,-6.412 -5.2,-11.612 -11.612,-11.612 -6.417,0 -11.615,5.2 -11.615,11.612 0,6.414 5.198,11.614 11.615,11.614 C -5.2,11.614 0,6.414 0,0"
           id="path3172"
           style="fill:#f6b319;fill-opacity:1;fill-rule:nonzero;stroke:none" /></g></g></g></svg>